<svg width="183" height="167" viewBox="0 0 183 167" fill="none" xmlns="http://www.w3.org/2000/svg">
<path d="M62.5717 107.386C72.9023 117.592 99.2362 131.879 121.926 107.386" stroke="black" stroke-width="6.38624" stroke-linecap="round"/>
<ellipse cx="75.6541" cy="76.1865" rx="6.7619" ry="8.82804" transform="rotate(13 75.6541 76.1865)" fill="black"/>
<ellipse cx="110.591" cy="76.5621" rx="6.7619" ry="8.82804" fill="black"/>
<path d="M53.1802 109.182C57.1576 109.674 65.2804 108.199 65.9527 98.3705" stroke="black" stroke-width="6.38624" stroke-linecap="round"/>
<path d="M131.318 109.182C127.34 109.674 119.217 108.199 118.545 98.3705" stroke="black" stroke-width="6.38624" stroke-linecap="round"/>
<path d="M159.904 100.84C158.483 137.029 127.036 165.175 89.6653 163.708C52.2949 162.24 23.1524 131.714 24.5738 95.5251C25.9951 59.3367 57.442 31.19 94.8124 32.6578C132.183 34.1256 161.325 64.6519 159.904 100.84Z" fill="#FFB0C8"/>
<path d="M21.2456 71.1639L4.80109 62.3309L9.84854 52.934L12.1978 54.1959L8.41217 61.2435L13.1106 63.7672L16.8962 56.7196L19.2454 57.9814L15.4598 65.0291L20.1582 67.5528L23.9438 60.5052L26.2931 61.767L21.2456 71.1639ZM25.2057 58.1559L23.9438 60.5052L19.2454 57.9814L20.5073 55.6322L25.2057 58.1559ZM13.4596 51.8466L18.1581 54.3704L16.8962 56.7196L12.1978 54.1959L13.4596 51.8466Z" fill="black"/>
<path d="M30.027 55.3454L18.1967 44.5729L19.9921 42.6012L23.9356 46.192L29.3218 40.2769L25.3784 36.6861L27.1738 34.7144L39.004 45.4869L37.2086 47.4586L31.2935 42.0723L25.9073 47.9874L31.8224 53.3737L30.027 55.3454ZM23.4067 34.8907L25.3784 36.6861L19.9921 42.6012L18.0204 40.8058L23.4067 34.8907Z" fill="black"/>
<path d="M52.0025 32.4466L49.7904 33.9358L48.3012 31.7237L50.5133 30.2345L52.0025 32.4466ZM44.6431 40.6154L43.154 38.4033L49.7904 33.9358L51.2795 36.1479L44.6431 40.6154ZM40.8554 20.663L42.3446 22.8752L35.7082 27.3427L34.219 25.1305L40.8554 20.663ZM40.9419 39.8925L33.496 28.8318L35.7082 27.3427L43.154 38.4033L40.9419 39.8925ZM43.8337 25.0873L42.3446 22.8752L44.5567 21.386L46.0458 23.5981L43.8337 25.0873Z" fill="black"/>
<path d="M57.1072 32.4265L50.5238 14.9593L53.0191 14.0188L55.8406 21.5048L58.3359 20.5643L59.2764 23.0596L56.781 24.0001L59.6025 31.486L57.1072 32.4265ZM68.6433 25.2288L69.5838 27.7241L67.0884 28.6646L66.148 26.1693L68.6433 25.2288ZM60.5051 11.1974L63.0004 10.2569L63.9409 12.7522L61.4455 13.6927L60.5051 11.1974ZM61.7717 22.1191L62.7122 24.6144L60.2168 25.5549L59.2764 23.0596L61.7717 22.1191ZM59.8907 17.1285L58.9502 14.6332L61.4455 13.6927L62.386 16.188L59.8907 17.1285ZM63.6526 27.1098L62.7122 24.6144L65.2075 23.674L66.148 26.1693L63.6526 27.1098ZM58.3359 20.5643L57.3954 18.069L59.8907 17.1285L60.8312 19.6238L58.3359 20.5643Z" fill="black"/>
<path d="M95.9656 5.8761L96.0004 8.54254L90.6675 8.61219L90.8765 24.6108L88.21 24.6457L88.0011 8.64702L82.6682 8.71666L82.6334 6.05022L95.9656 5.8761Z" fill="black"/>
<path d="M114.701 24.9867L112.098 24.4094L114.984 11.3922L117.587 11.9695L114.701 24.9867ZM104.57 9.08327L107.174 9.66051L104.288 22.6777L101.684 22.1005L104.57 9.08327ZM103.71 25.2812L104.288 22.6777L112.098 24.4094L111.521 27.0129L103.71 25.2812ZM115.561 8.78878L114.984 11.3922L107.174 9.66051L107.751 7.05707L115.561 8.78878Z" fill="black"/>
<path d="M147.905 23.6045L146.475 25.8552L141.974 22.9946L133.392 36.4984L131.141 35.0681L139.723 21.5643L135.222 18.7037L136.652 16.4531L147.905 23.6045Z" fill="black"/>
<path d="M153.113 49.9942L151.264 48.072L160.875 38.8301L162.723 40.7522L153.113 49.9942ZM153.481 31.1416L155.33 33.0637L145.719 42.3056L143.871 40.3835L153.481 31.1416ZM143.797 44.154L145.719 42.3056L151.264 48.072L149.342 49.9204L143.797 44.154ZM162.797 36.9817L160.875 38.8301L155.33 33.0637L157.252 31.2153L162.797 36.9817Z" fill="black"/>
<path d="M154.081 55.1065L170.213 45.7155L175.579 54.9341L173.275 56.2756L169.25 49.3617L164.641 52.0449L168.666 58.9588L166.361 60.3003L162.336 53.3865L155.422 57.4112L154.081 55.1065ZM174.616 58.5803L170.007 61.2634L168.666 58.9588L173.275 56.2756L174.616 58.5803Z" fill="black"/>
<ellipse cx="92.2386" cy="98.1825" rx="67.7172" ry="65.5754" transform="rotate(2.2492 92.2386 98.1825)" fill="#FFB0C8"/>
<path d="M62.5714 107.386C72.9021 117.592 99.236 131.879 121.926 107.386" stroke="black" stroke-width="6.38624" stroke-linecap="round"/>
<ellipse cx="75.6539" cy="76.1864" rx="6.7619" ry="8.82804" transform="rotate(13 75.6539 76.1864)" fill="black"/>
<ellipse cx="110.59" cy="76.562" rx="6.7619" ry="8.82804" fill="black"/>
<path d="M53.1799 109.182C57.1573 109.674 65.2802 108.199 65.9524 98.3704" stroke="black" stroke-width="6.38624" stroke-linecap="round"/>
<path d="M131.317 109.182C127.34 109.674 119.217 108.199 118.545 98.3704" stroke="black" stroke-width="6.38624" stroke-linecap="round"/>
</svg>
