<svg width="24" height="24" viewBox="0 0 24 24" fill="none" xmlns="http://www.w3.org/2000/svg">
<path d="M21.7162 11.43H22.8562V18.285H21.7162V11.43Z" fill="black"/>
<path d="M20.5762 18.285H21.7162V19.4325H20.5762V18.285Z" fill="black"/>
<path d="M20.5762 10.29H21.7162V11.43H20.5762V10.29Z" fill="black"/>
<path d="M19.4287 12.57H20.5763V17.145H19.4287V12.57Z" fill="black"/>
<path d="M20.5763 20.5725V19.4325H18.2887V18.285H19.4287V17.145H18.2887V12.57H19.4287V11.43H18.2887V10.29H20.5763V9.1425H18.2887V8.0025H17.1488V20.5725H20.5763Z" fill="black"/>
<path d="M14.8613 20.5725H17.1488V21.7125H14.8613V20.5725Z" fill="black"/>
<path d="M12.5737 21.7125H14.8612V22.86H12.5737V21.7125Z" fill="black"/>
<path d="M14.8612 3.42751V2.28751H13.7137V1.14001H12.5737V2.28751H11.4337V3.42751H14.8612Z" fill="black"/>
<path d="M11.4337 15.9975H12.5737V17.145H11.4337V15.9975Z" fill="black"/>
<path d="M11.4337 13.7175H12.5737V14.8575H11.4337V13.7175Z" fill="black"/>
<path d="M6.85875 22.86H12.5737V24H6.85875V22.86Z" fill="black"/>
<path d="M8.00625 17.145H11.4337V18.285H8.00625V17.145Z" fill="black"/>
<path d="M8.00625 9.14249H5.71875V10.29H13.7137V9.14249H16.0012V8.00249H17.1488V6.85499H16.0012V3.42749H14.8612V4.57499H11.4338V3.42749H10.2863V5.71499H8.00625V9.14249ZM13.7137 5.71499H14.8612V8.00249H13.7137V5.71499ZM11.4338 5.71499H12.5737V9.14249H11.4338V5.71499Z" fill="black"/>
<path d="M6.85875 15.9975H8.00625V17.145H6.85875V15.9975Z" fill="black"/>
<path d="M6.85875 13.7175H8.00625V14.8575H6.85875V13.7175Z" fill="black"/>
<path d="M6.85875 3.42749H8.00625V5.71499H6.85875V3.42749Z" fill="black"/>
<path d="M4.57125 21.7125H6.85875V22.86H4.57125V21.7125Z" fill="black"/>
<path d="M6.85875 8.00248V6.85498H4.57125V8.00248H3.43125V9.14248H5.71875V8.00248H6.85875Z" fill="black"/>
<path d="M5.71875 1.14001H6.85875V3.42751H5.71875V1.14001Z" fill="black"/>
<path d="M3.43125 0H5.71875V1.14H3.43125V0Z" fill="black"/>
<path d="M2.29125 20.5725H4.57125V21.7125H2.29125V20.5725Z" fill="black"/>
<path d="M2.29125 1.14001H3.43125V2.28751H2.29125V1.14001Z" fill="black"/>
<path d="M2.29125 8.00251H3.43125V5.71501H4.57125V4.57501H2.29125V6.85501H1.14375V20.5725H2.29125V8.00251Z" fill="black"/>
<path d="M1.14375 2.28751H2.29125V4.57501H1.14375V2.28751Z" fill="black"/>
</svg>
