<svg width="24" height="24" viewBox="0 0 24 24" fill="none" xmlns="http://www.w3.org/2000/svg">
<g clip-path="url(#clip0_58_793)">
<path d="M22.8525 11.4225H21.7125V12.57H22.8525V21.7125H24V9.14252H22.8525V11.4225Z" fill="black"/>
<path d="M21.7125 21.7125H22.8525V22.8525H21.7125V21.7125Z" fill="black"/>
<path d="M21.7125 7.995H22.8525V9.1425H21.7125V7.995Z" fill="black"/>
<path d="M20.5725 21.7125H19.425V22.8525H4.5675V21.7125H3.4275V22.8525H2.28V24H21.7125V22.8525H20.5725V21.7125Z" fill="black"/>
<path d="M18.285 20.565H19.425V21.7125H18.285V20.565Z" fill="black"/>
<path d="M17.1375 19.425H18.285V20.565H17.1375V19.425Z" fill="black"/>
<path d="M17.1375 13.71H19.425V14.8575H17.1375V13.71Z" fill="black"/>
<path d="M15.9975 18.285H17.1375V19.425H15.9975V18.285Z" fill="black"/>
<path d="M14.8575 17.1375H15.9975V18.285H14.8575V17.1375Z" fill="black"/>
<path d="M14.8575 14.8575H17.1375V15.9975H14.8575V14.8575Z" fill="black"/>
<path d="M14.8575 1.14001H15.9975V2.28001H14.8575V1.14001Z" fill="black"/>
<path d="M14.8575 7.995H12.57V9.1425H11.43V7.995H9.1425V9.1425H7.995V11.4225H9.1425V12.57H10.2825V13.71H11.43V14.8575H12.57V13.71H13.71V12.57H14.8575V11.4225H15.9975V9.1425H14.8575V7.995Z" fill="black"/>
<path d="M9.14249 15.9975H14.8575V17.1375H9.14249V15.9975Z" fill="black"/>
<path d="M9.14249 0H14.8575V1.14H9.14249V0Z" fill="black"/>
<path d="M7.995 17.1375H9.1425V18.285H7.995V17.1375Z" fill="black"/>
<path d="M6.85501 14.8575H9.14251V15.9975H6.85501V14.8575Z" fill="black"/>
<path d="M7.995 1.14001H9.1425V2.28001H7.995V1.14001Z" fill="black"/>
<path d="M6.85501 18.285H7.99501V19.425H6.85501V18.285Z" fill="black"/>
<path d="M5.715 19.425H6.855V20.565H5.715V19.425Z" fill="black"/>
<path d="M4.5675 13.71H6.855V14.8575H4.5675V13.71Z" fill="black"/>
<path d="M4.5675 20.565H5.715V21.7125H4.5675V20.565Z" fill="black"/>
<path d="M3.4275 12.57H2.28V13.71H4.5675V4.5675H19.425V13.71H21.7125V12.57H20.5725V7.995H21.7125V6.855H20.5725V3.4275H17.1375V2.28H15.9975V3.4275H7.995V2.28H6.855V3.4275H3.4275V6.855H2.28V7.995H3.4275V12.57Z" fill="black"/>
<path d="M1.14001 21.7125H2.28001V22.8525H1.14001V21.7125Z" fill="black"/>
<path d="M1.14001 7.995H2.28001V9.1425H1.14001V7.995Z" fill="black"/>
<path d="M1.14 12.57H2.28V11.4225H1.14V9.14252H0V21.7125H1.14V12.57Z" fill="black"/>
</g>
<defs>
<clipPath id="clip0_58_793">
<rect width="24" height="24" fill="white"/>
</clipPath>
</defs>
</svg>
