<svg width="24" height="24" viewBox="0 0 24 24" fill="none" xmlns="http://www.w3.org/2000/svg">
<g clip-path="url(#clip0_58_795)">
<path d="M22.8525 2.28751V8.00251H14.8575V9.14251H15.9975V10.2825H17.1375V9.14251H22.8525V21.7125H24V2.28751H22.8525Z" fill="black"/>
<path d="M21.7125 21.7125H22.8525V22.86H21.7125V21.7125Z" fill="black"/>
<path d="M21.7125 1.14001H22.8525V2.28751H21.7125V1.14001Z" fill="black"/>
<path d="M2.28 22.86H21.7125V24H2.28V22.86Z" fill="black"/>
<path d="M19.425 3.42749H20.565V5.71499H19.425V3.42749Z" fill="black"/>
<path d="M17.1375 2.28751H19.425V3.42751H17.1375V2.28751Z" fill="black"/>
<path d="M17.1375 10.2825H18.285V15.9975H17.1375V10.2825Z" fill="black"/>
<path d="M17.1375 5.71503H19.425V6.85503H17.1375V5.71503Z" fill="black"/>
<path d="M15.9975 15.9975H17.1375V17.145H15.9975V15.9975Z" fill="black"/>
<path d="M15.9975 3.42749H17.1375V5.71499H15.9975V3.42749Z" fill="black"/>
<path d="M14.8575 17.145H15.9975V18.285H14.8575V17.145Z" fill="black"/>
<path d="M9.1425 11.43H7.995V14.8575H9.1425V15.9975H10.2825V17.145H13.71V15.9975H14.8575V14.8575H15.9975V11.43H14.8575V10.2825H13.71V9.14252H10.2825V10.2825H9.1425V11.43ZM11.4225 11.43H13.71V13.7175H12.57V12.57H11.4225V11.43Z" fill="black"/>
<path d="M9.1425 6.85498H14.8575V8.00248H9.1425V6.85498Z" fill="black"/>
<path d="M9.1425 18.285H14.8575V19.425H9.1425V18.285Z" fill="black"/>
<path d="M7.995 17.145H9.1425V18.285H7.995V17.145Z" fill="black"/>
<path d="M6.855 15.9975H7.995V17.145H6.855V15.9975Z" fill="black"/>
<path d="M5.7075 10.2825H6.855V15.9975H5.7075V10.2825Z" fill="black"/>
<path d="M1.14 21.7125H2.28V22.86H1.14V21.7125Z" fill="black"/>
<path d="M1.14 9.1425H2.28V10.2825H5.7075V9.1425H6.855V10.2825H7.995V9.1425H9.1425V8.0025H7.995V1.14H21.7125V0H2.28V1.14H1.14V2.2875H2.28V8.0025H1.14V2.2875H0V21.7125H1.14V9.1425ZM5.7075 1.14H6.855V8.0025H5.7075V1.14ZM3.4275 1.14H4.5675V8.0025H3.4275V1.14Z" fill="black"/>
</g>
<defs>
<clipPath id="clip0_58_795">
<rect width="24" height="24" fill="white"/>
</clipPath>
</defs>
</svg>
