<svg width="24" height="24" viewBox="0 0 24 24" fill="none" xmlns="http://www.w3.org/2000/svg">
<g clip-path="url(#clip0_58_796)">
<path d="M22.8525 2.28751H24V21.7125H22.8525V2.28751Z" fill="black"/>
<path d="M21.7125 21.7125H22.8525V22.86H21.7125V21.7125Z" fill="black"/>
<path d="M21.7125 1.14001H22.8525V2.28751H21.7125V1.14001Z" fill="black"/>
<path d="M20.565 3.42749H21.7125V20.5725H20.565V3.42749Z" fill="black"/>
<path d="M2.28 22.86H21.7125V24H2.28V22.86Z" fill="black"/>
<path d="M3.42751 20.5725H20.565V21.7125H3.42751V20.5725Z" fill="black"/>
<path d="M17.1375 11.43H15.9975V10.2825H13.71V11.43H12.57V10.2825H10.2825V17.145H12.57V13.7175H13.71V12.57H14.8575V13.7175H15.9975V17.145H18.285V12.57H17.1375V11.43Z" fill="black"/>
<path d="M5.7075 10.2825H7.995V17.145H5.7075V10.2825Z" fill="black"/>
<path d="M5.7075 6.85498H7.995V9.14248H5.7075V6.85498Z" fill="black"/>
<path d="M3.42751 2.28751H20.565V3.42751H3.42751V2.28751Z" fill="black"/>
<path d="M2.28 0H21.7125V1.14H2.28V0Z" fill="black"/>
<path d="M2.28 3.42749H3.4275V20.5725H2.28V3.42749Z" fill="black"/>
<path d="M1.14 21.7125H2.28V22.86H1.14V21.7125Z" fill="black"/>
<path d="M1.14 1.14001H2.28V2.28751H1.14V1.14001Z" fill="black"/>
<path d="M0 2.28751H1.14V21.7125H0V2.28751Z" fill="black"/>
</g>
<defs>
<clipPath id="clip0_58_796">
<rect width="24" height="24" fill="white"/>
</clipPath>
</defs>
</svg>
