<svg width="24" height="24" viewBox="0 0 24 24" fill="none" xmlns="http://www.w3.org/2000/svg">
<g clip-path="url(#clip0_65_580)">
<path d="M22.86 1.14749H24V12.57H22.86V1.14749Z" fill="black"/>
<path d="M10.29 0H22.86V1.1475H10.29V0Z" fill="black"/>
<path d="M18.2925 12.57H22.86V13.7175H18.2925V12.57Z" fill="black"/>
<path d="M18.2925 8.0025H19.4325V10.29H18.2925V8.0025Z" fill="black"/>
<path d="M18.2925 4.57501H19.4325V5.71501H18.2925V4.57501Z" fill="black"/>
<path d="M17.145 13.7175H18.2925V14.8575H17.145V13.7175Z" fill="black"/>
<path d="M16.005 14.8575H17.145V16.005H16.005V14.8575Z" fill="black"/>
<path d="M16.005 11.43V12.57H17.145V11.43H18.2925V10.29H17.145V8.00251H18.2925V6.85501H17.145V4.57501H18.2925V3.42751H17.145V2.28751H16.005V3.42751H14.8575V4.57501H16.005V6.85501H14.8575V8.00251H16.005V10.29H14.8575V11.43H16.005Z" fill="black"/>
<path d="M13.7175 13.7175H12.5775V17.145H16.005V16.005H13.7175V13.7175Z" fill="black"/>
<path d="M13.7175 9.14252H14.8575V10.29H13.7175V9.14252Z" fill="black"/>
<path d="M13.7175 4.57501H14.8575V6.85501H13.7175V4.57501Z" fill="black"/>
<path d="M11.43 22.86H13.7175V24H11.43V22.86Z" fill="black"/>
<path d="M9.1425 21.7125H11.43V22.86H9.1425V21.7125Z" fill="black"/>
<path d="M9.1425 19.4325H10.29V20.5725H9.1425V19.4325Z" fill="black"/>
<path d="M9.1425 1.14749H10.29V8.00249H9.1425V1.14749Z" fill="black"/>
<path d="M3.435 20.5725V21.7125H5.715V24H6.8625V21.7125H9.1425V20.5725H3.435Z" fill="black"/>
<path d="M8.0025 17.145H9.1425V18.285H8.0025V17.145Z" fill="black"/>
<path d="M8.0025 14.8575H9.1425V16.005H8.0025V14.8575Z" fill="black"/>
<path d="M5.715 18.285H8.0025V19.4325H5.715V18.285Z" fill="black"/>
<path d="M3.435 14.8575H4.575V16.005H3.435V14.8575Z" fill="black"/>
<path d="M2.2875 19.4325H3.435V20.5725H2.2875V19.4325Z" fill="black"/>
<path d="M1.1475 21.7125H3.435V22.86H1.1475V21.7125Z" fill="black"/>
<path d="M2.2875 13.7175H3.435V12.57H9.1425V13.7175H10.29V19.4325H11.43V11.43H10.29V10.29H9.1425V9.14252H3.435V10.29H2.2875V11.43H1.1475V19.4325H2.2875V13.7175Z" fill="black"/>
<path d="M0 22.86H1.1475V24H0V22.86Z" fill="black"/>
</g>
<defs>
<clipPath id="clip0_65_580">
<rect width="24" height="24" fill="white"/>
</clipPath>
</defs>
</svg>
