<svg width="24" height="24" viewBox="0 0 24 24" fill="none" xmlns="http://www.w3.org/2000/svg">
<g clip-path="url(#clip0_65_583)">
<path d="M9.71621 0V1.14H7.42871V2.2875H9.71621V3.4275H10.8562V2.2875H13.1437V3.4275H14.2837V2.2875H16.5712V3.4275H17.7187V2.2875H18.8587V4.575H19.9987V3.4275H21.1462V22.86H8.57621V24H22.2862V22.86H23.4262V3.4275H22.2862V2.2875H21.1462V1.14H17.7187V0H16.5712V1.14H14.2837V0H13.1437V1.14H10.8562V0L9.71621 0Z" fill="black"/>
<path d="M17.7188 4.57501H18.8587V6.85501H17.7188V4.57501Z" fill="black"/>
<path d="M16.5712 9.14248H19.9987V8.00248H17.7187V6.85498H16.5712V9.14248Z" fill="black"/>
<path d="M15.4313 11.43H14.2838V13.7175H15.4313V12.57H19.9988V11.43H16.5713V9.14252H15.4313V11.43Z" fill="black"/>
<path d="M13.1437 15.9975H19.9987V14.8575H14.2837V13.7175H13.1437V15.9975Z" fill="black"/>
<path d="M12.0037 9.14252H13.1437V10.29H12.0037V9.14252Z" fill="black"/>
<path d="M12.0037 6.85498H13.1437V8.00248H12.0037V6.85498Z" fill="black"/>
<path d="M9.71625 18.285H19.9987V19.4325H9.71625V18.285Z" fill="black"/>
<path d="M8.57623 10.29H12.0037V11.43H8.57623V10.29Z" fill="black"/>
<path d="M8.57623 6.85498H9.71623V8.00248H8.57623V6.85498Z" fill="black"/>
<path d="M8.57625 17.145H13.1437V15.9975H1.71375V17.145H7.42875V22.86H8.57625V17.145Z" fill="black"/>
<path d="M7.42871 9.14252H8.57621V10.29H7.42871V9.14252Z" fill="black"/>
<path d="M6.28876 2.28748H7.42876V4.57498H6.28876V2.28748Z" fill="black"/>
<path d="M5.14124 4.57501H6.28874V6.85501H5.14124V4.57501Z" fill="black"/>
<path d="M4.00122 6.85498H5.14122V9.14248H4.00122V6.85498Z" fill="black"/>
<path d="M2.86121 9.14252H4.00121V11.43H2.86121V9.14252Z" fill="black"/>
<path d="M1.71375 11.43H2.86125V13.7175H1.71375V11.43Z" fill="black"/>
<path d="M0.57373 13.7175H1.71373V15.9975H0.57373V13.7175Z" fill="black"/>
</g>
<defs>
<clipPath id="clip0_65_583">
<rect width="24" height="24" fill="white"/>
</clipPath>
</defs>
</svg>
