<svg width="24" height="24" viewBox="0 0 24 24" fill="none" xmlns="http://www.w3.org/2000/svg">
<g clip-path="url(#clip0_64_444)">
<path d="M22.8525 3.4275H21.7125V2.2875H20.565V1.14H19.425V0H2.28V4.575H3.4275V5.715H4.5675V4.575H18.285V5.715H19.425V17.145H18.285V18.285H17.1375V19.425H2.28V18.285H1.14V19.425H0V24H1.14V20.5725H15.9975V24H24V4.575H22.8525V3.4275ZM4.5675 3.4275H3.4275V1.14H4.5675V3.4275ZM6.855 3.4275H5.7075V1.14H6.855V3.4275ZM17.1375 3.4275H7.995V1.14H17.1375V3.4275ZM22.8525 11.43H21.7125V5.715H20.565V4.575H19.425V3.4275H18.285V2.2875H19.425V3.4275H20.565V4.575H21.7125V5.715H22.8525V11.43Z" fill="black"/>
<path d="M14.85 11.43H15.9975V12.57H14.85V11.43Z" fill="black"/>
<path d="M12.57 17.145H15.9975V18.285H12.57V17.145Z" fill="black"/>
<path d="M13.71 9.14252H14.85V10.2825H13.71V9.14252Z" fill="black"/>
<path d="M14.85 24V21.7125H11.4225V24H12.57V22.86H13.71V24H14.85Z" fill="black"/>
<path d="M10.2825 12.57H14.85V13.7175H10.2825V12.57Z" fill="black"/>
<path d="M10.2825 9.14252H11.4225V10.2825H10.2825V9.14252Z" fill="black"/>
<path d="M9.1425 11.43H10.2825V12.57H9.1425V11.43Z" fill="black"/>
<path d="M7.995 17.145H9.1425V18.285H7.995V17.145Z" fill="black"/>
<path d="M18.285 15.9975V6.85498H6.855V15.9975H18.285ZM7.995 8.00248H17.1375V14.8575H7.995V8.00248Z" fill="black"/>
<path d="M5.7075 17.145H6.855V18.285H5.7075V17.145Z" fill="black"/>
<path d="M4.5675 5.71503H5.7075V15.9975H4.5675V5.71503Z" fill="black"/>
<path d="M3.42751 15.9975H4.56751V17.145H3.42751V15.9975Z" fill="black"/>
<path d="M2.28 17.145H3.4275V18.285H2.28V17.145Z" fill="black"/>
</g>
<defs>
<clipPath id="clip0_64_444">
<rect width="24" height="24" fill="white"/>
</clipPath>
</defs>
</svg>
