<svg width="24" height="24" viewBox="0 0 24 24" fill="none" xmlns="http://www.w3.org/2000/svg">
<g clip-path="url(#clip0_65_578)">
<path d="M22.2825 18.285H23.43V19.425H22.2825V18.285Z" fill="black"/>
<path d="M21.1425 17.1375H22.2825V18.285H21.1425V17.1375Z" fill="black"/>
<path d="M21.1425 19.425H22.2825V20.5725H21.1425V19.425Z" fill="black"/>
<path d="M19.995 15.9975H21.1425V17.1375H19.995V15.9975Z" fill="black"/>
<path d="M19.995 20.5725H21.1425V21.7125H19.995V20.5725Z" fill="black"/>
<path d="M18.855 14.8575H19.995V15.9975H18.855V14.8575Z" fill="black"/>
<path d="M18.855 19.425H19.995V20.5725H18.855V19.425Z" fill="black"/>
<path d="M17.715 13.71H18.855V14.8575H17.715V13.71Z" fill="black"/>
<path d="M17.715 18.285H18.855V19.425H17.715V18.285Z" fill="black"/>
<path d="M16.5675 12.57H17.715V13.71H16.5675V12.57Z" fill="black"/>
<path d="M16.5675 17.1375H17.715V18.285H16.5675V17.1375Z" fill="black"/>
<path d="M15.4275 15.9975V14.8575H14.2875V15.9975H15.42V17.1375H16.5675V15.9975H15.4275Z" fill="black"/>
<path d="M1.71 1.14H0.57V22.8525H1.71V24H15.42V22.8525H16.5675V19.425H15.42V21.7125H1.71V2.28H5.1375V3.4275H11.9925V2.28H15.42V9.1425H16.5675V1.14H15.42V0H1.71V1.14ZM8.565 1.14H10.8525V2.28H8.565V1.14ZM6.2775 1.14H7.425V2.28H6.2775V1.14Z" fill="black"/>
<path d="M13.14 13.71H14.2875V14.8575H13.14V13.71Z" fill="black"/>
<path d="M12 5.71503H14.2875V7.99503H12V5.71503Z" fill="black"/>
<path d="M15.42 11.4225V12.57H16.5675V11.4225H15.4275V10.2825H12V13.71H13.14V11.4225H15.42Z" fill="black"/>
<path d="M7.425 5.71503H9.7125V7.99503H7.425V5.71503Z" fill="black"/>
<path d="M9.7125 18.285V17.1375H10.8525V15.9975H9.7125V14.8575H8.5725V15.9975H7.425V17.1375H8.5725V18.285H9.7125Z" fill="black"/>
<path d="M7.425 10.2825H9.7125V12.57H7.425V10.2825Z" fill="black"/>
<path d="M2.8575 5.71503H5.145V7.99503H2.8575V5.71503Z" fill="black"/>
<path d="M2.8575 10.2825H5.145V12.57H2.8575V10.2825Z" fill="black"/>
<path d="M2.8575 14.8575H5.145V17.1375H2.8575V14.8575Z" fill="black"/>
</g>
<defs>
<clipPath id="clip0_65_578">
<rect width="24" height="24" fill="white"/>
</clipPath>
</defs>
</svg>
