<svg width="203" height="66" viewBox="0 0 203 66" fill="none" xmlns="http://www.w3.org/2000/svg">
<ellipse cx="33.8297" cy="32.8394" rx="32.6153" ry="31.5837" transform="rotate(2.2492 33.8297 32.8394)" fill="#A1D8F7"/>
<path d="M19.5408 37.2722C24.5165 42.1875 37.1999 49.069 48.1283 37.2722" stroke="black" stroke-width="3.07587" stroke-linecap="round"/>
<ellipse cx="25.8418" cy="22.2452" rx="3.2568" ry="4.25193" transform="rotate(13 25.8418 22.2452)" fill="black"/>
<ellipse cx="42.6686" cy="22.426" rx="3.2568" ry="4.25193" fill="black"/>
<path d="M15.0175 38.1372C16.9331 38.3739 20.8454 37.6638 21.1692 32.9298" stroke="black" stroke-width="3.07587" stroke-linecap="round"/>
<path d="M52.6516 38.1372C50.7359 38.3739 46.8237 37.6638 46.4999 32.9298" stroke="black" stroke-width="3.07587" stroke-linecap="round"/>
<ellipse cx="101.741" cy="32.8394" rx="32.6153" ry="31.5837" transform="rotate(2.2492 101.741 32.8394)" fill="#EC4545"/>
<path d="M87.452 37.2722C92.4276 42.1875 105.111 49.069 116.039 37.2722" stroke="black" stroke-width="3.07587" stroke-linecap="round"/>
<ellipse cx="93.7529" cy="22.2452" rx="3.2568" ry="4.25193" transform="rotate(13 93.7529 22.2452)" fill="black"/>
<ellipse cx="110.58" cy="22.426" rx="3.2568" ry="4.25193" fill="black"/>
<path d="M82.9286 38.1372C84.8443 38.3739 88.7566 37.6638 89.0804 32.9298" stroke="black" stroke-width="3.07587" stroke-linecap="round"/>
<path d="M120.563 38.1372C118.647 38.3739 114.735 37.6638 114.411 32.9298" stroke="black" stroke-width="3.07587" stroke-linecap="round"/>
<ellipse cx="169.17" cy="32.8394" rx="32.6153" ry="31.5837" transform="rotate(2.2492 169.17 32.8394)" fill="#FFB0C8"/>
<path d="M154.881 37.2722C159.857 42.1875 172.54 49.069 183.469 37.2722" stroke="black" stroke-width="3.07587" stroke-linecap="round"/>
<ellipse cx="161.182" cy="22.2452" rx="3.2568" ry="4.25193" transform="rotate(13 161.182 22.2452)" fill="black"/>
<ellipse cx="178.009" cy="22.426" rx="3.2568" ry="4.25193" fill="black"/>
<path d="M150.358 38.1372C152.274 38.3739 156.186 37.6638 156.51 32.9298" stroke="black" stroke-width="3.07587" stroke-linecap="round"/>
<path d="M187.992 38.1372C186.077 38.3739 182.164 37.6638 181.84 32.9298" stroke="black" stroke-width="3.07587" stroke-linecap="round"/>
</svg>
